<svg id="Layer_1" data-name="Layer 1" xmlns="http://www.w3.org/2000/svg" viewBox="0 0 391 391"><defs><style>.cls-1{fill:#cf9e76;}.cls-2{fill:#fff;}.cls-3,.cls-4,.cls-5{fill:none;stroke:#cf9e76;stroke-miterlimit:10;}.cls-3{stroke-width:0.75px;}.cls-4{stroke-width:0.5px;}</style></defs><title>logo-04</title><path class="cls-1" d="M295.26,249.4h2.49a12.37,12.37,0,0,0,2.49-.27A140.19,140.19,0,0,1,320.17,248q10,.13,19.92.92,7.08.52,13.63,1.57a17,17,0,0,1,6.56,2.1,3.41,3.41,0,0,1,0,6.29,7.42,7.42,0,0,1-3,1.44c-1.14.27-2.23.57-3.27.92a49.36,49.36,0,0,1-8.66.79c-2.79,0-5.68-.09-8.65-.26a174.39,174.39,0,0,0-42.47,2.09c-4,.7-8.13,1.41-12.32,2.1s-8.3,1.31-12.32,1.84a18.91,18.91,0,0,1-4.59.52h-4.59a14.91,14.91,0,0,1-4.72-1.57,2.11,2.11,0,0,1-1.44-1.84,2.83,2.83,0,0,1,.92-2.36,9.91,9.91,0,0,1,3.93-2.88,37,37,0,0,1,3.67-1.84c1.22-.52,2.53-1,3.93-1.57a6.58,6.58,0,0,1,2-.65,4.08,4.08,0,0,0,1.7-.66,9.73,9.73,0,0,0,.27-3.8,24.42,24.42,0,0,1-.27-3.8c-.17-.87-.35-1.75-.52-2.62a13,13,0,0,1-.26-2.62q-.79-11.81-1.05-23.34t0-23.33V181.76q0-6.82.26-13.64.53-9.44.79-18.87t1.05-18.88q.51-6.54,1.31-13a114.89,114.89,0,0,1,2.36-13,36.29,36.29,0,0,1,1.44-4.46c.61-1.57,1.26-3,2-4.45q1.83-5,8.12-5.51h2.36c2.8.18,4.76.79,5.9,1.84s1.88,2.88,2.23,5.5q1.05,8.66,1.57,17.3a432.41,432.41,0,0,1,0,52.17q-.78,15.74-1.44,31.46t-1.18,31.46q-.27,4.72-.13,9.57C295.22,242.54,295.26,245.9,295.26,249.4Z" transform="translate(-84 -56)"/><path class="cls-1" d="M359.23,168.12q1.83-2.35,3.27-4.45t3-4.2q2.88-3.66,8.12-2.88,4.2.53,5,3.93a14.13,14.13,0,0,1,.65,3c.09,1,.22,2,.39,3a158.43,158.43,0,0,1,.14,17q-.4,8.66-.14,17,0,11.55.79,22.81a32.27,32.27,0,0,0,1.05,5.77q.78,2.88,1.31,5.77a1.06,1.06,0,0,0,.26.78l.79.79a4.25,4.25,0,0,0,.79-1.05c.17-.35.34-.7.52-1.05q3.66-8.38,6.82-16.78t5.5-17c.35-1,.66-2,.92-3a22.74,22.74,0,0,1,.92-2.75,7.27,7.27,0,0,1,1.31-1.58,2,2,0,0,1,1.7-.26,1.6,1.6,0,0,1,1.18,1.05,9.8,9.8,0,0,1-.26,5,117.44,117.44,0,0,0-4.72,15.6q-1.83,8-3.93,16.12a38.17,38.17,0,0,1-1.44,4.85c-.62,1.66-1.27,3.28-2,4.85a10.25,10.25,0,0,1-9.18,6.29q-10,.79-15.46-7.07a62.34,62.34,0,0,1-4.59-8.13,56.5,56.5,0,0,1-3.28-8.92q-.52-2.61-1.05-5.11t-1-5.11a5,5,0,0,1-.39-1.31,12,12,0,0,0-.65-2.1c-.53.88-1,1.67-1.32,2.36s-.7,1.4-1,2.1q-5.25,8.91-13.64,11.27a24.31,24.31,0,0,1-16.78-1.31,17.15,17.15,0,0,1-5.24-3.28,19,19,0,0,1-3.67-4.85A37.06,37.06,0,0,1,310.46,192a49.91,49.91,0,0,1,3.67-12.84,32.77,32.77,0,0,1,8.92-11.28,23.79,23.79,0,0,1,10.09-4.72,41.16,41.16,0,0,1,11.4-.52,32.52,32.52,0,0,1,7.61,2A45.81,45.81,0,0,1,359.23,168.12Zm-2.1,7.08a14.91,14.91,0,0,0-5.64-3.27,48,48,0,0,0-6.42-1.45,3.61,3.61,0,0,0-2.62.79,19.82,19.82,0,0,0-2.23,2.62c-.62.88-1.18,1.75-1.71,2.62a49.83,49.83,0,0,0-5.11,15.73,69.53,69.53,0,0,0-.39,16.52,25.32,25.32,0,0,0,.79,3.67,9.64,9.64,0,0,0,2.09,3.67,10.36,10.36,0,0,1,2.36-1,27.63,27.63,0,0,0,9.44-10.48,52.48,52.48,0,0,0,3.67-6.43c1.05-2.18,2.18-4.41,3.41-6.68a9.17,9.17,0,0,0,.52-2.89q.52-3.13.92-6.42T357.13,175.2Z" transform="translate(-84 -56)"/><path class="cls-1" d="M148.9,339.32c-.52-.26-.93-.48-1.25-.67a4.84,4.84,0,0,1-.87-.68c-1.8-1.28-2-2.83-.58-4.63a7.13,7.13,0,0,1,1.74-1.54c-.26-2.45-.42-4.76-.48-6.95s-.23-4.37-.48-6.56a120.47,120.47,0,0,1,0-16.78c.25-2.58.45-5.21.58-7.91s.32-5.41.57-8.11q.57-6,1.53-11.86A91.53,91.53,0,0,1,152.33,262l1.14-3.09a17,17,0,0,1,1.53-3.09,5.52,5.52,0,0,1,6.86-2.51,2.85,2.85,0,0,1,2.48,2.51c.13.65.22,1.26.29,1.83a17.92,17.92,0,0,1,.1,1.84c0,2.31,0,4.63-.1,6.94s-.16,4.57-.29,6.76c-.13,1.92-.19,3.82-.19,5.69v5.69a4.45,4.45,0,0,0,.77-1.54,13.1,13.1,0,0,1,.58-1.74q.76-2.5,1.35-4.92a38.51,38.51,0,0,1,1.54-4.92,42.86,42.86,0,0,1,2.32-5.6,40,40,0,0,1,3.28-5.4q8.3-10.61,21.41-9.26Q209.29,252.5,217,265A42.2,42.2,0,0,1,223.18,284a96.13,96.13,0,0,1-.19,13.7,59.58,59.58,0,0,1-2.7,13.31q-5.21,16.4-19.87,24.12a79.76,79.76,0,0,1-14.95,6.07,52.25,52.25,0,0,1-15.92,2,2.1,2.1,0,0,0-1.06-.1,5,5,0,0,1-1.06.1l-.77.38a3.47,3.47,0,0,1-.1.78,1,1,0,0,0,.1.77c.25,1.67.51,3.31.77,4.92s.51,3.25.77,4.92q.39,3.85,1,7.91t1.16,7.91c.26,2.19,0,3.79-.87,4.82s-2.34,1.74-4.51,2.12a11.1,11.1,0,0,1-6.31-.77,5.81,5.81,0,0,1-3.24-3.66c-.26-1-.48-2-.67-2.8s-.42-1.7-.67-2.61q-1.14-5.4-2.29-10.7t-1.91-10.71a32.57,32.57,0,0,1-.57-3.47C149.15,341.83,149,340.61,148.9,339.32Zm17-4.05a3.62,3.62,0,0,0,1.93.19h1.84a9.33,9.33,0,0,0,1.83-.19,24.91,24.91,0,0,0,4.63-1.26c1.54-.57,3.09-1.18,4.63-1.83a37.46,37.46,0,0,0,12.15-8.87,32.12,32.12,0,0,0,7-13.32q.76-3.08,1.45-6.17c.45-2.05.8-4.18,1.06-6.37a66.38,66.38,0,0,0,1.16-12.25A50.35,50.35,0,0,0,202,273c-.51-1.93-1.09-3.82-1.73-5.69a26.21,26.21,0,0,0-2.71-5.5,12.83,12.83,0,0,0-3.66-4.43,4.43,4.43,0,0,0-4.82-.58,13.09,13.09,0,0,0-6.18,4.82,38.24,38.24,0,0,0-7.72,14.86,261.63,261.63,0,0,0-6.55,27.49,183.92,183.92,0,0,0-2.9,28.07v1.64A8.42,8.42,0,0,0,165.88,335.27Z" transform="translate(-84 -56)"/><path class="cls-1" d="M263.5,306.52c.9-1.15,1.71-2.25,2.42-3.28s1.44-2.05,2.22-3.08a5.94,5.94,0,0,1,6-2.13c2.05.26,3.28,1.23,3.66,2.9a9.43,9.43,0,0,1,.48,2.22c.07.7.16,1.44.29,2.22a116.28,116.28,0,0,1,.1,12.54q-.28,6.36-.1,12.54,0,8.49.58,16.78a25.32,25.32,0,0,0,.77,4.25c.39,1.41.71,2.83,1,4.24a.78.78,0,0,0,.19.58l.58.58a3.17,3.17,0,0,0,.58-.77c.13-.26.26-.52.38-.78q2.7-6.16,5-12.34c1.54-4.12,2.9-8.3,4.05-12.54.26-.78.49-1.51.68-2.22a17.88,17.88,0,0,1,.67-2,5.76,5.76,0,0,1,1-1.16,1.45,1.45,0,0,1,1.25-.19,1.2,1.2,0,0,1,.87.77,7.23,7.23,0,0,1-.19,3.67,86.88,86.88,0,0,0-3.48,11.48q-1.35,5.88-2.89,11.86a28,28,0,0,1-1.06,3.57c-.45,1.23-.94,2.41-1.45,3.57a7.56,7.56,0,0,1-6.75,4.63,11.83,11.83,0,0,1-11.38-5.21,46,46,0,0,1-3.38-6,41.44,41.44,0,0,1-2.41-6.56c-.26-1.28-.52-2.54-.77-3.76s-.52-2.48-.77-3.76a3.28,3.28,0,0,1-.29-1,8.37,8.37,0,0,0-.49-1.54q-.57,1-1,1.74l-.77,1.54q-3.87,6.56-10,8.3a17.94,17.94,0,0,1-12.35-1,12.7,12.7,0,0,1-3.86-2.41,14,14,0,0,1-2.7-3.57,27.23,27.23,0,0,1-2.51-17.17,36.42,36.42,0,0,1,2.7-9.45,24,24,0,0,1,6.56-8.3,17.42,17.42,0,0,1,7.43-3.47,29.73,29.73,0,0,1,8.39-.39,24,24,0,0,1,5.6,1.45A32.78,32.78,0,0,1,263.5,306.52ZM262,311.73a11,11,0,0,0-4.15-2.41,34.39,34.39,0,0,0-4.72-1.06,2.64,2.64,0,0,0-1.93.58,13.47,13.47,0,0,0-1.64,1.93c-.45.64-.87,1.28-1.26,1.93a36.49,36.49,0,0,0-3.76,11.57,51.4,51.4,0,0,0-.29,12.16,20,20,0,0,0,.58,2.7,7.33,7.33,0,0,0,1.54,2.7,7.73,7.73,0,0,1,1.74-.77,20.35,20.35,0,0,0,7-7.72,39.31,39.31,0,0,0,2.7-4.73c.77-1.6,1.6-3.24,2.51-4.92a6.9,6.9,0,0,0,.38-2.12c.26-1.54.48-3.12.68-4.73S261.7,313.53,262,311.73Z" transform="translate(-84 -56)"/><path class="cls-1" d="M310.39,354.56a5.54,5.54,0,0,0,3.47-2.31c.9-1,1.76-2.13,2.6-3.28a33.7,33.7,0,0,0,2.22-3.48q1.74-3.08,3.18-6.17c1-2.06,2-4.18,3-6.37a30.55,30.55,0,0,0,1.92-3.66,33.09,33.09,0,0,1,1.93-3.67,2.11,2.11,0,0,1,.78-1,1.79,1.79,0,0,1,1.35-.2,1.32,1.32,0,0,1,.57,1.16c-.12.77-.32,1.74-.57,2.9a18.31,18.31,0,0,1-.78,2.7q-2.12,5.2-4.53,10.22t-5.11,9.84a17.36,17.36,0,0,1-4.44,5.21,11.58,11.58,0,0,1-5.79,2.51,13.75,13.75,0,0,1-5.88-.48,15.6,15.6,0,0,1-5.11-2.7,11.75,11.75,0,0,1-3.48-4.34,21.6,21.6,0,0,1-1.73-4.83,49.49,49.49,0,0,1-2.13-11.48q-.37-5.88-.19-11.86c.13-2.57.35-5.12.68-7.62a41.65,41.65,0,0,1,1.64-7.43,22.68,22.68,0,0,1,2.31-5,6.29,6.29,0,0,1,4.34-3.47,9.92,9.92,0,0,1,5.5.39,5.76,5.76,0,0,1,3.09,3.85c.25,1,.51,2.13.77,3.28a15.87,15.87,0,0,1,.39,3.48,105.23,105.23,0,0,1,.19,10.9,107.46,107.46,0,0,1-1,10.9q-.39,4.62-.58,9.26a75.34,75.34,0,0,0,.2,9.26,17.8,17.8,0,0,0,.09,1.83A2.52,2.52,0,0,0,310.39,354.56Zm-9.07-60.19a4.78,4.78,0,0,1-4.05-1.74,5.51,5.51,0,0,1-.78-4.63,7.09,7.09,0,0,1,4.44-5.21,4.71,4.71,0,0,1,4.83.77,3.14,3.14,0,0,1,1.35,2.71c-.13.77-.23,1.57-.29,2.41a7.71,7.71,0,0,1-.49,2.22,5.36,5.36,0,0,1-1.83,2.79A5.92,5.92,0,0,1,301.32,294.37Z" transform="translate(-84 -56)"/><path class="cls-1" d="M345.69,316.75c.51-.9,1-1.8,1.45-2.7s.93-1.8,1.45-2.7l3.47-5.21a45.14,45.14,0,0,1,7.52-8.3,12.79,12.79,0,0,1,9.26-2.7,9.11,9.11,0,0,1,1.84.19,13.61,13.61,0,0,1,1.83.58,2.36,2.36,0,0,1,1.35,1.54c.13.78-.26,1.29-1.16,1.55a13.32,13.32,0,0,1-1.93,1,19.29,19.29,0,0,0-7.71,3.48,36.33,36.33,0,0,0-6,5.78,31.25,31.25,0,0,0-5.49,8.59,47.25,47.25,0,0,0-3,9.74q-.58,3.09-.87,6.08c-.2,2-.42,4.08-.68,6.27a29.11,29.11,0,0,0-.29,5.21c.07,1.67.23,3.41.48,5.21q.39,3.09.68,6.07t.68,5.89a4.21,4.21,0,0,1-.29,3.09,4.83,4.83,0,0,1-2.61,1.54,16.72,16.72,0,0,1-9.07.19,6.36,6.36,0,0,1-3.85-3.66,39.35,39.35,0,0,1-1.93-5.6q-.78-2.89-1.35-6-1-5.21-1.64-10.42a79.16,79.16,0,0,1-.68-10.42,7.75,7.75,0,0,0-.1-1.35,8.78,8.78,0,0,1-.09-1.35,43.45,43.45,0,0,1,.29-12.63,93.09,93.09,0,0,1,3-12.45,13.65,13.65,0,0,1,1-2.22c.39-.7.77-1.38,1.16-2a7.39,7.39,0,0,1,3.95-3.09,7.26,7.26,0,0,1,4.92.19,3.54,3.54,0,0,1,2.51,2.51c.13.65.23,1.19.29,1.64a12.52,12.52,0,0,1,.1,1.64q.38,3.09.48,6.18t.29,6.17v1.25a3.92,3.92,0,0,0,.19,1.26Z" transform="translate(-84 -56)"/><path class="cls-1" d="M386.79,326.78a26.61,26.61,0,0,0,1.35,14.47,11.52,11.52,0,0,1,.67,1.16,3.51,3.51,0,0,0,.68,1,1.9,1.9,0,0,0,2.89,1c.9-.39,1.8-.74,2.7-1.06a11.13,11.13,0,0,0,2.51-1.26,84.67,84.67,0,0,0,9.55-6,49.88,49.88,0,0,0,8.39-7.72,9.5,9.5,0,0,1,1.84-1.73c.7-.52,1.38-1,2-1.55.39-.38.84-.32,1.35.2a1.55,1.55,0,0,1,.39,1.15,34.18,34.18,0,0,1-1.93,3.09,20.53,20.53,0,0,1-2.12,2.51A19.75,19.75,0,0,0,415,334.5a50.92,50.92,0,0,1-8.2,7.33,70,70,0,0,1-9.35,5.59,19.19,19.19,0,0,1-7.14,2,23.24,23.24,0,0,1-7.53-.68,14.18,14.18,0,0,1-6.36-3.28q-9.84-8.1-8.1-20.64A42.19,42.19,0,0,1,372,312.31a51.4,51.4,0,0,1,7.23-11,33.66,33.66,0,0,1,6.56-5.4,20.46,20.46,0,0,1,15.63-2.51,7.74,7.74,0,0,1,3.09,1.16,5.33,5.33,0,0,1,3.47,5.79,17,17,0,0,1-1,5.4A38.35,38.35,0,0,1,397.2,321a16.47,16.47,0,0,1-3.37,2.61c-1.23.7-2.54,1.38-4,2C389,326,387.94,326.39,386.79,326.78Zm11.76-28.17a21.05,21.05,0,0,0-4.72,6.37c-1.1,2.31-2.16,4.7-3.19,7.14-.51,1.41-1,2.86-1.54,4.34a13.82,13.82,0,0,0-.77,4.53c.51,0,.77-.06.77-.19a25,25,0,0,0,6.46-6,30.75,30.75,0,0,0,4.15-7.53,10.94,10.94,0,0,0,.77-5.78A4.25,4.25,0,0,0,398.55,298.61Z" transform="translate(-84 -56)"/><path class="cls-1" d="M191.2,156.33s10.71,0,15.05,5.79c-3.92,6.53-7,22.77-6.49,29.69-1.62-4.51-4.66-13-8.74-14.58-4.35,1.12-12,6.77-14,9.77C177,185,191.2,156.33,191.2,156.33Z" transform="translate(-84 -56)"/><path class="cls-2" d="M188.6,162.16c1.05,0,9.54,2.19,10.48,6-1.26.74-5.24.74-5.24.74S188.48,163.41,188.6,162.16Z" transform="translate(-84 -56)"/><polygon class="cls-2" points="117.42 120.45 113.51 117.26 116.54 122.81 117.42 120.45"/><polygon class="cls-2" points="101.43 112.86 102.61 115.06 99.89 116.73 101.43 112.86"/><path class="cls-1" d="M199.46,198.19s-5,17.71-12.85,19.07c-9.22.47-10.38-19.07-10.38-19.07s-1,14.76-.62,17.29c.39,3.52,4.93,19.27,5.45,20.53,1.94,3,11.88,2.52,13.41,1.26s4.61-19.49,4.61-19.49Z" transform="translate(-84 -56)"/><path class="cls-1" d="M208.4,160.9c11.21-4.57,18.75.63,18.75.63a17.11,17.11,0,0,1,.84,5.86c-8.91-6.18-19.59,7.87-19.59,7.87A90.42,90.42,0,0,0,208.4,160.9Z" transform="translate(-84 -56)"/><path class="cls-1" d="M228.46,167.86c.79-.26,13,2.94,14.41,10.22-.11,3.45-3.2,8.38-4.19,9.84-1,2.05-1.84,10.17-1.78,11.84s5.23,22.16,6.81,26.09c1.72,10.26-9.59,9-10.69,8.69-2.72-2-14.25-23.36-14.25-23.36l1.78-19s-8.38,0-11.13-3.36c-.55-.84-1-8.91-1-8.91s8,5.5,13.53,5.24C221.81,184.21,225.37,168.86,228.46,167.86Z" transform="translate(-84 -56)"/><path class="cls-3" d="M232.09,94.5c7.41,4-6.6,62.9-5.59,67" transform="translate(-84 -56)"/><path class="cls-3" d="M208,158.15c1.93,1.8-.45,22.35,1.53,33.35,2.18,9.48,10,20,10,20" transform="translate(-84 -56)"/><path class="cls-4" d="M178.34,185.17s10.26-23,13.12-30.16c6-16.51,5.62-28.51,8-31.51" transform="translate(-84 -56)"/><path class="cls-4" d="M226.26,118.26c0,3.44-15.74,35-20.57,44.43" transform="translate(-84 -56)"/><circle class="cls-5" cx="195.5" cy="195.5" r="195"/></svg>